<?xml version="1.0" encoding="iso-8859-1"?>
<!-- Generator: Adobe Illustrator 19.0.0, SVG Export Plug-In . SVG Version: 6.00 Build 0)  -->
<svg version="1.1" id="Capa_1" xmlns="http://www.w3.org/2000/svg" xmlns:xlink="http://www.w3.org/1999/xlink" x="0px" y="0px"
	 viewBox="0 0 462.841 462.841" style="enable-background:new 0 0 462.841 462.841;" xml:space="preserve">
<g>
	<path d="M356.003,208.979H106.837c-4.142,0-7.5,3.358-7.5,7.5s3.358,7.5,7.5,7.5h249.167c4.142,0,7.5-3.358,7.5-7.5
		S360.146,208.979,356.003,208.979z"/>
	<path d="M403.119,452.969l-9.615-28.846V216.479c0-0.368-0.027-0.736-0.081-1.101l-14.919-100.59V55.341c0-4.142-3.358-7.5-7.5-7.5
		H294.89V37.5c0-20.678-16.822-37.5-37.5-37.5h-53.938c-20.678,0-37.5,16.822-37.5,37.5v10.341H91.837c-4.142,0-7.5,3.358-7.5,7.5
		v59.447l-14.919,100.59c-0.054,0.365-0.081,0.732-0.081,1.101v207.645l-9.615,28.846c-0.762,2.287-0.379,4.801,1.031,6.757
		c1.41,1.956,3.674,3.115,6.084,3.115h329.167c2.411,0,4.675-1.159,6.084-3.115C403.498,457.771,403.881,455.256,403.119,452.969z
		 M180.951,37.5c0-12.407,10.094-22.5,22.5-22.5h53.938c12.407,0,22.5,10.093,22.5,22.5v10.341h-98.938V37.5z M77.243,447.841
		l6.709-20.128c0.255-0.765,0.385-1.565,0.385-2.372V217.032l13.97-94.191h23.53c4.142,0,7.5-3.358,7.5-7.5s-3.358-7.5-7.5-7.5
		h-22.5v-45h264.167v45H151.837c-4.142,0-7.5,3.358-7.5,7.5s3.358,7.5,7.5,7.5h212.697l13.97,94.191v208.309
		c0,0.806,0.13,1.607,0.385,2.372l6.709,20.128H77.243z"/>
	<path d="M318.45,317.761c-0.005-0.069-0.004-0.138-0.01-0.206c-0.027-0.289-0.071-0.574-0.13-0.853
		c-0.006-0.028-0.015-0.055-0.021-0.083c-0.056-0.251-0.125-0.497-0.206-0.737c-0.022-0.066-0.048-0.131-0.072-0.197
		c-0.075-0.204-0.157-0.403-0.249-0.598c-0.033-0.07-0.066-0.14-0.101-0.21c-0.102-0.201-0.213-0.395-0.332-0.585
		c-0.032-0.051-0.061-0.104-0.094-0.155c-0.155-0.235-0.323-0.462-0.503-0.677c-0.036-0.043-0.076-0.082-0.113-0.124
		c-0.149-0.171-0.306-0.335-0.47-0.492c-0.029-0.027-0.052-0.058-0.081-0.085l-54.293-50.221c-1.386-1.282-3.205-1.994-5.093-1.994
		h-50.523c-0.245,0-0.488,0.013-0.73,0.037c-0.114,0.011-0.225,0.032-0.338,0.048c-0.124,0.018-0.249,0.033-0.371,0.057
		c-0.135,0.026-0.267,0.062-0.399,0.095c-0.097,0.025-0.195,0.046-0.291,0.075c-0.137,0.041-0.271,0.089-0.405,0.137
		c-0.089,0.032-0.179,0.062-0.267,0.098c-0.13,0.052-0.256,0.111-0.382,0.171c-0.09,0.042-0.179,0.083-0.267,0.129
		c-0.118,0.061-0.232,0.128-0.346,0.195c-0.092,0.054-0.185,0.109-0.275,0.167c-0.104,0.068-0.205,0.139-0.305,0.212
		c-0.094,0.068-0.188,0.136-0.279,0.209c-0.092,0.073-0.181,0.149-0.27,0.227c-0.055,0.048-0.113,0.09-0.166,0.14l-54.293,50.221
		c-1.839,1.701-2.707,4.208-2.314,6.682l13.573,85.512c0.578,3.643,3.719,6.324,7.407,6.324h131.963
		c3.688,0,6.829-2.682,7.407-6.324l13.573-85.512c0.008-0.049,0.007-0.098,0.014-0.146c0.027-0.196,0.045-0.394,0.057-0.594
		c0.006-0.098,0.013-0.196,0.015-0.294c0.001-0.047,0.007-0.094,0.007-0.141C318.476,318.095,318.461,317.928,318.45,317.761z
		 M291.822,310.765h-78.164v-35.221h40.086L291.822,310.765z M159.901,321.048l38.757-35.851v111.079h-26.816L159.901,321.048z
		 M290.999,396.276h-77.34v-70.512h88.533L290.999,396.276z"/>
</g>
<g>
</g>
<g>
</g>
<g>
</g>
<g>
</g>
<g>
</g>
<g>
</g>
<g>
</g>
<g>
</g>
<g>
</g>
<g>
</g>
<g>
</g>
<g>
</g>
<g>
</g>
<g>
</g>
<g>
</g>
</svg>
