<?xml version="1.0" encoding="iso-8859-1"?>
<!-- Generator: Adobe Illustrator 16.0.0, SVG Export Plug-In . SVG Version: 6.00 Build 0)  -->
<!DOCTYPE svg PUBLIC "-//W3C//DTD SVG 1.1//EN" "http://www.w3.org/Graphics/SVG/1.1/DTD/svg11.dtd">
<svg version="1.1" id="Capa_1" xmlns="http://www.w3.org/2000/svg" xmlns:xlink="http://www.w3.org/1999/xlink" x="0px" y="0px"
	 width="179.45px" height="179.45px" viewBox="0 0 179.45 179.45" style="enable-background:new 0 0 179.45 179.45;"
	 xml:space="preserve">
<g>
	<path d="M179.351,100.778c0-1.544-1.261-2.791-2.802-2.791l0,0l-11.794,0.022l-0.038-11.786c0-1.539-1.259-2.797-2.802-2.797
		c0,0,0,0-0.009,0l-22.514,0.06c-0.743,0-1.456,0.295-1.98,0.82c-0.526,0.525-0.821,1.237-0.821,1.987l0.055,20.559l-41.54,0.109
		l-0.061-20.554c-0.005-1.543-1.261-2.795-2.801-2.795l0,0l-7.48,0.016V61.012c0-3.479-2.282-8.339-12.38-12.262V30.933
		c0-16.531-59.999-16.531-59.999,0v17.806C4.405,51.836,0,56.143,0,61.012v82.853c0,11.08,21.835,17.05,42.377,17.05
		c15.495,0,29.626-3.168,36.882-8.284c0.074-0.061,0.106-0.126,0.169-0.187l12.999-0.033c0.74,0,1.453-0.3,1.978-0.82
		c0.527-0.52,0.817-1.236,0.817-1.98l-0.054-20.554l41.542-0.114l0.061,20.555c0,1.541,1.264,2.794,2.802,2.794c0,0,0,0,0.011,0
		l22.519-0.058c0.743,0,1.453-0.298,1.979-0.826c0.527-0.527,0.821-1.238,0.821-1.983l-0.031-11.792l11.775-0.021
		c0.742,0,1.456-0.296,1.979-0.813c0.524-0.527,0.822-1.245,0.822-1.988L179.351,100.778z M18,51.207
		c0.077-0.372,0.082-0.754,0-1.148V38.577c5.731,3.272,15.095,4.953,24.396,4.953c9.301,0,18.663-1.68,24.398-4.953V52.4
		c0,2.462-9.265,6.987-24.398,6.987C27.261,59.387,18,54.862,18,52.4V51.207L18,51.207z M42.396,23.956
		c15.133,0,24.398,4.526,24.398,6.989c0,2.467-9.265,6.992-24.398,6.992C27.261,37.937,18,33.412,18,30.945
		C18,28.482,27.261,23.956,42.396,23.956z M12.821,54.622c2.454,6.812,16.064,10.375,29.57,10.375
		c13.513,0,27.142-3.568,29.579-10.386c5.229,2.304,7.195,4.744,7.195,6.413c0,4.783-13.991,11.442-36.774,11.442
		c-22.786,0-36.774-6.659-36.774-11.442C5.617,58.977,8.372,56.602,12.821,54.622z M5.617,92.871
		c7.289,5.056,20.669,7.885,33.972,8.24v32.012c-21.125-0.524-33.972-6.828-33.972-11.415V92.871z M5.617,143.87v-13.373
		c7.809,5.412,22.59,8.262,36.774,8.262c1.545,0,2.801-1.258,2.801-2.802V98.347c0-1.542-1.256-2.801-2.801-2.801
		c-22.786,0-36.774-6.665-36.774-11.447V69.817c7.809,5.406,22.59,8.258,36.774,8.258c14.18,0,28.975-2.852,36.774-8.258v13.838
		l-9.432,0.022c-0.746,0-1.457,0.301-1.982,0.827c-0.529,0.525-0.819,1.236-0.819,1.98l0.033,11.792L55.187,98.31
		c-1.541,0.005-2.796,1.259-2.79,2.807l0.089,34.031c0,0.732,0.298,1.449,0.824,1.975c0.528,0.52,1.235,0.821,1.978,0.821h0.006
		l11.784-0.031l0.033,11.785c0,0.82,0.37,1.542,0.935,2.046c-6.87,2.232-16.008,3.584-25.664,3.584
		C19.605,155.318,5.617,148.658,5.617,143.87z M67.072,132.306l-8.981,0.022l-0.075-28.432l8.977-0.022L67.072,132.306z
		 M72.715,146.869L72.559,89.27l16.917-0.043l0.156,57.598L72.715,146.869z M95.174,123.458l-0.035-10.889l41.54-0.109l0.032,10.879
		L95.174,123.458z M142.372,146.687l-0.155-57.592l16.914-0.044l0.158,57.598L142.372,146.687z M164.848,132.034l-0.074-28.421
		l8.983-0.012l0.065,28.416L164.848,132.034z"/>
</g>
<g>
</g>
<g>
</g>
<g>
</g>
<g>
</g>
<g>
</g>
<g>
</g>
<g>
</g>
<g>
</g>
<g>
</g>
<g>
</g>
<g>
</g>
<g>
</g>
<g>
</g>
<g>
</g>
<g>
</g>
</svg>
