<?xml version="1.0" encoding="iso-8859-1"?>
<!-- Generator: Adobe Illustrator 19.0.0, SVG Export Plug-In . SVG Version: 6.00 Build 0)  -->
<svg version="1.1" id="Layer_1" xmlns="http://www.w3.org/2000/svg" xmlns:xlink="http://www.w3.org/1999/xlink" x="0px" y="0px"
	 viewBox="0 0 512 512" style="enable-background:new 0 0 512 512;" xml:space="preserve">
<g>
	<g>
		<g>
			<polygon points="74.835,181.811 57.37,208.008 69.917,216.373 84.512,194.481 106.103,187.285 101.333,172.979 			"/>
			<path d="M153.265,95.124l-10.062,40.245l32.517,21.678l71.792-44.869V58.726L197.137,68.8L153.265,95.124z M232.43,77.121v26.698
				l-56.447,35.278l-15.572-10.38l5.969-23.875l36.276-21.765L232.43,77.121z"/>
			<path d="M463.911,437.081L463.911,437.081v-24.995h16.504v-15.081h-64.593V271.417l17.008-17.007l-3.414-11.381l52.929-8.821
				l-17.754-53.263l35.762-62.585l-43.159-7.154l8.229-10.581l-38.104-66.68l-51.527,25.764l-127.895-47.96l-82.861,33.144
				L43.735,117.562l-1.452,1.134c-0.524,0.524-12.932,13.03-22.371,30.858c-13.099,24.743-14.07,47.745-2.81,66.511
				c18.803,31.397,75.687,35.547,78.1,35.709l3.838,0.256l5.274-6.336l19.268,12.846l8.365-12.547l-17.931-11.955l13.656-16.408
				l9.851,14.779l12.542-8.375l-12.331-18.465l1.908-2.277l28.671-3.44v20.354h15.081v-22.164l24.994-2.999v17.149h15.081v-18.958
				l24.994-2.999v13.943h15.081v-15.752l49.263-5.912L263.8,225.358l-10.483-10.483l-10.663,10.662l9.773,9.773l-18.539,16.239
				l-12.629-12.629l-10.663,10.662l11.925,11.925l-17.443,15.279h-5.654V260.28h-15.081v16.504h-16.979V260.28h-15.081v16.504
				h-18.956l3.314,9.928c0.214,0.643,5.409,15.925,18.632,31.335c16.064,18.722,37.091,29.612,61.129,31.775v47.185H31.585v15.081
				h16.504v24.993H0v63.169h512v-63.169H463.911z M476.506,129.694l-28.355,49.623l14.305,42.916l-37.411,6.234l-16.44-54.793
				l38.056-48.928L476.506,129.694z M382.21,73.36l39.093-19.546l26.015,45.526l-55.391,71.217l23.866,79.563l-42.694,42.694
				h-34.993l30.374-72.894l-24.101-48.201L382.21,73.36z M400.742,286.498v110.508h-73.082v-79.121l4.163-9.991h47.524
				L400.742,286.498z M131.915,189.03l-39.456,47.331c-4.948-0.566-14.234-1.902-24.411-4.76
				c-13.197-3.707-30.506-10.754-38.012-23.288c-8.475-14.125-7.45-31.42,3.046-51.404c7.253-13.808,16.807-24.327,19.268-26.928
				l118.849-71.31l76.875-30.749l118.382,44.393l-35.714,92.856L131.915,189.03z M167.066,308.632
				c-5.182-5.965-8.965-11.969-11.56-16.769h55.239l123.021-107.65l18.139,36.277l-31.852,76.477l-5.572,13.345l-68.441,22.814
				c-7.445,1.485-14.821,2.166-21.981,2.005C201.203,334.772,182.028,325.856,167.066,308.632z M312.578,326.844v70.161h-81.097
				v-46.907c5.93-0.29,11.96-1.051,18.009-2.283l0.446-0.09L312.578,326.844z M496.919,485.169H15.081v-33.008h264.963V437.08
				H63.169v-24.994h385.661v40.074h48.089V485.169z"/>
			<rect x="296.072" y="437.084" width="16.03" height="15.081"/>
			<rect x="328.133" y="437.084" width="16.03" height="15.081"/>
			<rect x="360.194" y="437.084" width="16.03" height="15.081"/>
			<rect x="408.281" y="84.429" width="16.03" height="15.081"/>
			<rect x="392.255" y="100.456" width="16.03" height="15.081"/>
			<rect x="304.084" y="68.395" width="16.03" height="15.081"/>
			<rect x="320.12" y="84.429" width="16.03" height="15.081"/>
			<rect x="247.985" y="292.814" width="16.03" height="15.081"/>
			<rect x="264.01" y="276.788" width="16.03" height="15.081"/>
		</g>
	</g>
</g>
<g>
</g>
<g>
</g>
<g>
</g>
<g>
</g>
<g>
</g>
<g>
</g>
<g>
</g>
<g>
</g>
<g>
</g>
<g>
</g>
<g>
</g>
<g>
</g>
<g>
</g>
<g>
</g>
<g>
</g>
</svg>
